<?xml version="1.0" encoding="iso-8859-1"?>
<!-- Generator: Adobe Illustrator 18.0.0, SVG Export Plug-In . SVG Version: 6.00 Build 0)  -->
<!DOCTYPE svg PUBLIC "-//W3C//DTD SVG 1.1//EN" "http://www.w3.org/Graphics/SVG/1.1/DTD/svg11.dtd">
<svg version="1.1" id="Capa_1" xmlns="http://www.w3.org/2000/svg" xmlns:xlink="http://www.w3.org/1999/xlink" x="0px" y="0px"
	 viewBox="0 0 485.392 485.392" style="enable-background:new 0 0 485.392 485.392;" xml:space="preserve">
<g>
	<path d="M202.657,160.244c19.404,0,35.15-15.733,35.15-35.145c0-19.404-15.746-35.137-35.15-35.137
		c-19.404,0-35.14,15.733-35.14,35.137C167.518,144.511,183.253,160.244,202.657,160.244z"/>
	<path d="M217.343,337.386c21.731-9.656,48.841-6.4,66.607,10.184l0.414-0.336c23.227-21.292,59.13-21.169,82.172,0.375
		c15.536-14.48,38.076-18.731,57.967-13.296c33.151-22.331,53.059-50.863,53.059-81.973c0-9.556-1.973-18.846-5.596-27.799
		c-1.727-4.235-5.23-7.499-9.587-8.914c-4.345-1.414-9.1-0.833-12.983,1.583c-51.957,32.286-122.723,52.454-201.072,53.394
		L217.343,337.386z"/>
	<path d="M480.804,360.124c-6.118-6.1-16.027-6.108-22.141,0.007c-5.093,5.101-14.039,5.108-19.128,0.008
		c-16.944-16.958-46.438-16.996-63.443,0.008c-5.108,5.108-13.974,5.137-19.144-0.031c-17.155-17.186-45.002-17.485-62.507-0.856
		l-0.921,0.879c-5.105,5.108-13.989,5.122-19.128-0.031c-16.94-16.927-46.469-16.927-63.409,0.031
		c-5.108,5.108-14.008,5.108-19.143-0.015c-0.52-0.52-1.05-1.023-1.593-1.511l66.68-143.788l16.67-8.824
		c7.646-4.045,10.566-13.517,6.514-21.164c-1.491-2.81-3.715-4.98-6.308-6.404l23.569-50.828c1.823-3.922,0.123-8.579-3.807-10.398
		c-3.899-1.835-8.577-0.115-10.381,3.807l-27.34,58.953l-36.684,19.412l-29.767-23.23c-2.819-7.973-16.527-19.903-33.881-16.347
		c-10.265,2.104-19.311,9.155-23.257,19.686l-26.201,69.919c-25.843-8.521-49.434-19.382-70.044-32.184
		c-3.884-2.408-8.64-2.98-12.983-1.574c-4.356,1.415-7.875,4.671-9.587,8.906c-3.639,8.946-5.611,18.228-5.611,27.784
		c0,31.003,19.83,59.419,52.767,81.713c19.926-5.803,42.189-1.445,58.259,13.556c13.163-12.318,31.513-17.209,48.99-15.093
		l29.743-64.144c-10.271-1.003-20.361-2.342-30.255-3.987l19.057-50.853l21.503,16.78c2.813,2.188,6.209,3.312,9.633,3.312
		c2.506,0,5.016-0.597,7.322-1.821l9.221-4.88l-57.281,123.521c-16.162-6.157-35.74-2.944-48.392,9.717
		c-5.108,5.093-13.943,5.129-19.112-0.038c-17.493-17.462-45.935-17.47-63.429,0.007c-5.089,5.101-14.004,5.116-19.128,0
		c-6.113-6.115-16.022-6.107-22.141-0.007c-6.117,6.116-6.117,16.033,0,22.148c16.929,16.958,46.515,16.927,63.413,0.008
		c5.288-5.298,13.882-5.26,19.174,0.023c8.455,8.464,19.707,13.128,31.682,13.128c11.974,0,23.227-4.663,31.728-13.166
		c5.107-5.106,13.992-5.122,19.127,0.015c16.99,16.965,46.484,16.935,63.413,0c5.14-5.122,14.035-5.107,19.112-0.031
		c16.699,16.683,45.536,17.027,62.554,0.889l0.905-0.881c5.105-5.106,13.974-5.137,19.144,0.031
		c16.94,16.942,46.423,16.965,63.424-0.023c5.108-5.106,14.009-5.122,19.112,0.015c16.96,16.942,46.53,16.927,63.429-0.008
		C486.921,376.156,486.921,366.239,480.804,360.124z"/>
</g>
<g>
</g>
<g>
</g>
<g>
</g>
<g>
</g>
<g>
</g>
<g>
</g>
<g>
</g>
<g>
</g>
<g>
</g>
<g>
</g>
<g>
</g>
<g>
</g>
<g>
</g>
<g>
</g>
<g>
</g>
</svg>
