<svg id="Capa_1" enable-background="new 0 0 512 512" height="512" viewBox="0 0 512 512" width="512" xmlns="http://www.w3.org/2000/svg"><g><path d="m206.303 343.103 33.355-163.77 12.843-6.936 22.177 19.939c-6.993 10.359-12.204 21.967-15.343 34.45-7.092 28.202-2.778 57.478 12.15 82.435 20.372 34.061 56.544 52.962 93.614 52.962 19 0 38.245-4.971 55.703-15.412 24.957-14.927 42.607-38.68 49.699-66.882s2.777-57.478-12.15-82.435-38.679-42.607-66.882-49.699c-28.202-7.093-57.478-2.777-82.435 12.15-5.085 3.041-9.861 6.455-14.312 10.192l-28.117-25.279-41.075-76.05 52.267-28.229 5.007 9.221c2.024 3.726 2.472 8.017 1.264 12.081-1.209 4.064-3.929 7.412-7.659 9.427l-12.199 6.589 14.227 26.343 12.2-6.589c10.778-5.821 18.637-15.494 22.129-27.235 3.491-11.742 2.195-24.137-3.651-34.903l-19.263-35.473-104.892 56.652 49.421 91.504-142.333 76.875-4.311-7.982c-10.509-19.458-34.89-26.738-54.347-16.229l-27.755 14.99 14.228 26.343 27.755-14.991c2.39-1.29 5.138-1.574 7.741-.796 2.602.777 4.746 2.521 6.037 4.91l10.439 19.329 8.053 36.039c-9.336 2.591-18.383 6.455-26.924 11.564-51.519 30.814-68.364 97.797-37.55 149.317 20.373 34.061 56.544 52.962 93.614 52.962 19 0 38.244-4.971 55.703-15.413 24.957-14.927 42.607-38.679 49.699-66.881 6.406-25.48 3.5-51.835-8.127-75.09zm118.099-157.505c18.094-10.822 39.318-13.951 59.766-8.809 20.447 5.142 37.667 17.938 48.489 36.032s13.951 39.319 8.809 59.766-17.938 37.667-36.032 48.489c-37.35 22.34-85.913 10.128-108.255-27.224-10.822-18.094-13.95-39.318-8.808-59.765 1.927-7.661 4.928-14.869 8.88-21.457l57.659 51.839 20.017-22.264-57.627-51.811c2.266-1.709 4.63-3.318 7.102-4.796zm-119.074 12.277-23.076 113.3c-13.131-12.011-29.111-20.655-46.854-25.117-8.52-2.143-17.138-3.237-25.706-3.319l-6.622-29.634zm-35.396 143.76-42.01 22.69-11.454-51.26c3.886.385 7.771 1.059 11.628 2.029 16.66 4.188 31.176 13.462 41.836 26.541zm-20.57 117.745c-37.351 22.34-85.914 10.128-108.255-27.224-10.822-18.094-13.95-39.319-8.808-59.766s17.938-37.667 36.032-48.489c5.758-3.444 11.835-6.101 18.101-7.968l20.901 93.538 76.804-41.482c10.691 34.038-2.846 72.293-34.775 91.391z"/><path d="m432.401 385.554h-50.513c-18.789 0-36.934 6.803-51.093 19.154l-16.552 14.439h-13.125c-27.477 0-53.174 14.728-67.063 38.436l-31.876 54.417h309.821v-222.346zm49.66 96.507h-227.645l5.474-9.343c8.538-14.576 24.337-23.631 41.23-23.631h24.348l25.01-21.818c8.704-7.594 19.86-11.776 31.411-11.776h64.571l35.601-42.892z"/></g></svg>