<?xml version="1.0"?>
<svg xmlns="http://www.w3.org/2000/svg" id="Icons" viewBox="0 0 74 74" width="512" height="512"><path d="M65.7,62.979H46.96a2.93,2.93,0,0,1-1.455-.387l-41.977-24A1.8,1.8,0,0,1,2.88,36.11l3.05-5.087A1.8,1.8,0,0,1,8.378,30.4L48.213,53.721H71a1,1,0,0,1,1,1v1.957A6.309,6.309,0,0,1,65.7,62.979ZM4.7,36.958l41.8,23.9a.925.925,0,0,0,.461.123H65.7a4.307,4.307,0,0,0,4.3-4.3v-.957H47.942a1,1,0,0,1-.505-.137L7.542,32.226Z"/><path d="M8.314,32.519A1,1,0,0,1,7.463,31L19.441,11.5a1,1,0,0,1,1.354-.341l8.493,4.931a3.24,3.24,0,0,1,1.539,3.538l-1.08,6.334a1,1,0,1,1-1.972-.337l1.09-6.388a1.271,1.271,0,0,0-.582-1.418l-7.65-4.441L9.167,32.042A1,1,0,0,1,8.314,32.519Z"/><path d="M71,55.721a1,1,0,0,1-1-1V50.765a7.008,7.008,0,0,0-7-7H54.424L50.687,44.9a1,1,0,0,1-1.087-.354L37.5,28.529a1,1,0,0,1,.232-1.428l4.547-3.118V21.971a.8.8,0,0,0-1.13-.728L29.177,26.7a1,1,0,0,1-.94-.06L15.964,19.063a1,1,0,1,1,1.051-1.7l11.818,7.3L40.32,19.423a2.8,2.8,0,0,1,3.96,2.547v2.54a1,1,0,0,1-.435.825l-4.118,2.824L50.774,42.78l3.212-.972a1,1,0,0,1,.29-.043H63a9.01,9.01,0,0,1,9,9v3.956A1,1,0,0,1,71,55.721Z"/><path d="M21.872,40.456h-.058a1,1,0,0,1-.942-1.055l.332-5.867a7.73,7.73,0,0,0-3.31-6.815L13.208,23.44A1,1,0,0,1,14.354,21.8l4.687,3.277A9.717,9.717,0,0,1,23.2,33.646l-.332,5.867A1,1,0,0,1,21.872,40.456Z"/><path d="M54.277,43.765a1,1,0,0,1-.857-.484l-11-18.254a1,1,0,1,1,1.713-1.032l11,18.254a1,1,0,0,1-.855,1.516Z"/><path d="M24.991,42.283a1,1,0,0,1-.638-1.771L31.986,34.2a1,1,0,1,1,1.274,1.541l-7.632,6.311A1,1,0,0,1,24.991,42.283Z"/><path d="M31.321,45.989a1,1,0,0,1-.649-1.761l5.991-5.107a1,1,0,0,1,1.3,1.522L31.97,45.75A1,1,0,0,1,31.321,45.989Z"/><path d="M38.115,49.967a1,1,0,0,1-.681-1.732l4.276-3.978a1,1,0,1,1,1.362,1.465L38.8,49.7A1,1,0,0,1,38.115,49.967Z"/><path d="M33.21,62.979H3a1,1,0,0,1,0-2H33.21a1,1,0,0,1,0,2Z"/><path d="M19.867,55.507H3a1,1,0,0,1,0-2H19.867a1,1,0,0,1,0,2Z"/><path d="M10.152,48.3H3a1,1,0,0,1,0-2h7.152a1,1,0,0,1,0,2Z"/></svg>
