<?xml version="1.0" encoding="iso-8859-1"?>
<!-- Generator: Adobe Illustrator 19.0.0, SVG Export Plug-In . SVG Version: 6.00 Build 0)  -->
<svg version="1.1" id="Capa_1" xmlns="http://www.w3.org/2000/svg" xmlns:xlink="http://www.w3.org/1999/xlink" x="0px" y="0px"
	 viewBox="0 0 512 512" style="enable-background:new 0 0 512 512;" xml:space="preserve">
<g>
	<g>
		<path d="M316,0c-24.814,0-45,20.186-45,45c0,24.814,20.186,45,45,45c24.814,0,45-20.186,45-45S340.814,0,316,0z"/>
	</g>
</g>
<g>
	<g>
		<path d="M476.605,396.394c-5.859-5.859-15.351-5.859-21.21,0.001l-21.211,21.211c-2.798,2.798-6.665,4.395-10.605,4.395H331v-90
			c0-10.049-4.995-19.38-13.359-24.961l-67.969-45.308l48.164-97.299C308.084,143.872,292.112,120,271,120h-90
			c-5.947,0-11.704,1.743-16.641,5.039l-90,61c-13.755,9.17-17.49,27.832-8.32,41.602c9.168,13.74,27.808,17.529,41.602,8.32
			L190.082,181h32.373l-38.291,76.582c-6.753,13.491-2.358,31,10.195,39.379L271,348.055V422h-75c-8.291,0-15,6.709-15,15
			c0,8.291,6.709,15,15,15h17.763c-1.681,4.715-2.763,9.716-2.763,15c0,24.814,20.186,45,45,45c24.814,0,45-20.186,45-45
			c0-5.284-1.082-10.385-2.763-15.1h65.526c-1.681,4.715-2.763,9.816-2.763,15.1c0,24.814,20.186,45,45,45c24.814,0,45-20.186,45-45
			c0-7.608-2.076-14.67-5.424-20.96c3.519-1.99,6.883-4.288,9.818-7.224l21.211-21.211
			C482.464,411.746,482.464,402.253,476.605,396.394z M256,482c-8.276,0-15-6.724-15-15s6.724-15,15-15c8.276,0,15,6.724,15,15
			S264.276,482,256,482z M406,482c-8.276,0-15-6.724-15-15s6.724-15,15-15s15,6.724,15,15S414.276,482,406,482z"/>
	</g>
</g>
<g>
	<g>
		<path d="M177.719,321.922c-6.879-4.59-12.404-10.466-16.708-17.032L132.455,362H61c-16.538,0-30,13.462-30,30
			c0,16.538,13.462,30,30,30h90c11.44,0,21.724-6.357,26.836-16.582l31.278-62.565L177.719,321.922z"/>
	</g>
</g>
<g>
	<g>
		<path d="M361,181h-37.903l-30.005,60H361c16.538,0,30-13.462,30-30C391,194.462,377.538,181,361,181z"/>
	</g>
</g>
<g>
</g>
<g>
</g>
<g>
</g>
<g>
</g>
<g>
</g>
<g>
</g>
<g>
</g>
<g>
</g>
<g>
</g>
<g>
</g>
<g>
</g>
<g>
</g>
<g>
</g>
<g>
</g>
<g>
</g>
</svg>
